<svg xmlns="http://www.w3.org/2000/svg" viewBox="0 0 100 100">
  <defs>
    <linearGradient id="cosmo" x1="0%" y1="0%" x2="0%" y2="100%">
      <stop offset="0%" style="stop-color:#f472b6;stop-opacity:0.9"/>
      <stop offset="50%" style="stop-color:#ec4899;stop-opacity:1"/>
      <stop offset="100%" style="stop-color:#be185d;stop-opacity:1"/>
    </linearGradient>
    <linearGradient id="glass-shine" x1="0%" y1="0%" x2="100%" y2="0%">
      <stop offset="0%" style="stop-color:#ffffff;stop-opacity:0.3"/>
      <stop offset="50%" style="stop-color:#ffffff;stop-opacity:0"/>
    </linearGradient>
  </defs>

  <!-- Martini glass bowl outline -->
  <polygon points="12,12 88,12 50,62" fill="none" stroke="#a1a1aa" stroke-width="2.5"/>

  <!-- Cosmopolitan pink liquid -->
  <polygon points="18,18 82,18 50,56" fill="url(#cosmo)"/>

  <!-- Glass shine effect -->
  <polygon points="18,18 35,18 50,40 50,56" fill="url(#glass-shine)"/>

  <!-- Glass stem -->
  <rect x="47" y="62" width="6" height="22" fill="#a1a1aa"/>

  <!-- Glass base -->
  <ellipse cx="50" cy="88" rx="16" ry="4" fill="#a1a1aa"/>

  <!-- Burned orange peel garnish -->
  <path d="M72,8 Q80,5 86,10 Q88,16 84,22 Q78,20 74,14 Q71,11 72,8"
        fill="#c2410c" stroke="#9a3412" stroke-width="1"/>
  <!-- Charred/burned edges -->
  <path d="M73,9 Q75,7 78,7" stroke="#451a03" stroke-width="1.5" fill="none" stroke-linecap="round"/>
  <path d="M84,18 Q86,15 85,12" stroke="#451a03" stroke-width="1.5" fill="none" stroke-linecap="round"/>
  <!-- Orange peel texture -->
  <circle cx="78" cy="12" r="1" fill="#ea580c"/>
  <circle cx="81" cy="15" r="0.8" fill="#ea580c"/>
  <circle cx="76" cy="16" r="0.8" fill="#ea580c"/>
</svg>
